<?xml version="1.0"?>
<svg width="29.999999999999996" height="29.999999999999996" xmlns="http://www.w3.org/2000/svg" xmlns:svg="http://www.w3.org/2000/svg">
 <g>
  <title>Layer 1</title>
  <g stroke="null" id="svg_2">
   <path stroke="null" d="m23.70048,19.171911c-1.256308,0 -2.397469,0.481201 -3.258938,1.264839l-9.273221,-4.72848c0.03696,-0.241311 0.061837,-0.486532 0.061837,-0.738503c0,-0.1418 -0.009237,-0.281467 -0.021321,-0.420425l9.361358,-4.77255c0.845121,0.715047 1.936527,1.147913 3.130636,1.147913c2.678577,0 4.850378,-2.171439 4.850378,-4.850375s-2.171801,-4.851088 -4.850378,-4.851088c-2.679289,0 -4.851084,2.171795 -4.851084,4.851088c0,0.147842 0.009239,0.293553 0.022388,0.43784l-9.349273,4.766859c-0.846543,-0.721798 -1.942923,-1.159994 -3.142722,-1.159994c-2.678939,0 -4.851088,2.171793 -4.851088,4.850732c0,2.678942 2.172149,4.850735 4.851088,4.850735c1.080387,0 2.074416,-0.357525 2.880442,-0.95458l9.601957,4.895508c-0.00462,0.086716 -0.013147,0.172359 -0.013147,0.260145c0,2.679296 2.171793,4.850731 4.851088,4.850731c2.678576,0 4.850374,-2.171434 4.850374,-4.850731c0.000355,-2.678225 -2.171799,-4.849663 -4.850374,-4.849663z" id="svg_1" fill="#ffffff"/>
  </g>
 </g>
</svg>