<?xml version="1.0"?>
<svg width="20" height="20" xmlns="http://www.w3.org/2000/svg" xmlns:svg="http://www.w3.org/2000/svg">
 <metadata id="metadata7">image/svg+xml</metadata>
 <g>
  <title>Layer 1</title>
  <g stroke="null" id="layer1">
   <path stroke="null" id="path5" d="m18.979536,4.360836c-0.666225,0.293319 -1.382338,0.49147 -2.133764,0.580617c0.767,-0.456336 1.356169,-1.17894 1.633507,-2.040022c-0.717926,0.422635 -1.512991,0.729434 -2.359306,0.894785c-0.677632,-0.716674 -1.643194,-1.164378 -2.711794,-1.164378c-2.051727,0 -3.715294,1.650904 -3.715294,3.687242c0,0.289004 0.032867,0.57046 0.096249,0.840324c-3.087736,-0.153757 -5.825241,-1.621788 -7.657674,-3.852683c-0.3198,0.544581 -0.503063,1.177948 -0.503063,1.85373c0,1.279315 0.655902,2.407928 1.65279,3.069153c-0.608999,-0.01914 -1.181869,-0.185033 -1.68276,-0.461185c-0.000422,0.015364 -0.000422,0.030822 -0.000422,0.04637c0,1.786512 1.280657,3.276739 2.980258,3.61571c-0.311742,0.084292 -0.639965,0.129316 -0.978783,0.129316c-0.239398,0 -0.472094,-0.023187 -0.698997,-0.06614c0.472819,1.464888 1.844835,2.530953 3.470643,2.560606c-1.27151,0.989056 -2.873415,1.578564 -4.614125,1.578564c-0.299883,0 -0.5956,-0.017523 -0.886246,-0.051582c1.64419,1.046299 3.597045,1.656754 5.69513,1.656754c6.833632,0 10.570657,-5.618619 10.570657,-10.491451c0,-0.159869 -0.003624,-0.318841 -0.010777,-0.477091c0.725798,-0.51978 1.355625,-1.169143 1.853708,-1.908638l0.000063,0l0,0z" fill="#ffffff"/>
  </g>
 </g>
</svg>